<svg width="33" height="29" viewBox="0 0 33 29" fill="none" xmlns="http://www.w3.org/2000/svg">
<path d="M26.7484 28.4961V8.9073C26.7484 8.70197 26.8716 8.61984 27.0769 8.61984H31.43C31.6764 8.61984 31.7585 8.6609 31.7585 8.9073V28.5372C31.7585 28.7836 31.6764 28.8657 31.3889 28.8657H27.1591C26.8716 28.8657 26.7484 28.7425 26.7484 28.4961ZM29.2535 5.86837C27.5697 5.86837 26.4609 4.71851 26.4609 3.03477C26.4609 1.35104 27.6519 0.201172 29.2945 0.201172C31.0604 0.201172 32.0871 1.3921 32.0871 3.03477C32.0871 4.71851 30.9783 5.86837 29.2535 5.86837Z" fill="#FE9900"/>
<path d="M17.7421 21.7613H7.92712L5.66845 28.5373C5.58632 28.7837 5.46312 28.8658 5.21672 28.8658H1.11005C0.863651 28.8658 0.781517 28.7426 0.822584 28.4551L9.28232 4.39008C9.44658 3.97941 9.56979 3.56874 9.65192 2.17248C9.65192 2.00821 9.73405 1.88501 9.89832 1.88501H15.6066C15.8119 1.88501 15.853 1.92608 15.8941 2.13141L25.3805 28.4962C25.4215 28.7426 25.3805 28.8658 25.1341 28.8658H20.5346C20.3293 28.8658 20.2061 28.7837 20.1239 28.6194L17.7421 21.7613ZM9.24125 17.285H16.4279C15.5655 14.5746 13.6354 8.86634 12.8141 5.99167H12.773C12.1159 8.74314 10.4733 13.5479 9.24125 17.285Z" fill="#FE9900"/>
</svg>
