<svg width="35" height="29" viewBox="0 0 35 29" fill="none" xmlns="http://www.w3.org/2000/svg">
<path d="M33.0803 12.2933C31.8072 11.5952 29.7539 11.1024 27.9469 11.1024C25.7704 11.1024 25.0312 12.0058 25.0312 12.8682C25.0312 13.7717 25.6472 14.3877 28.2755 15.4144C32.9571 17.1392 34.5587 18.9872 34.5587 21.9029C34.5587 25.7632 31.5197 28.1861 26.4685 28.1861C24.0456 28.1861 21.9101 27.7344 20.6781 27.0362C20.4728 26.913 20.3907 26.8309 20.3907 26.5845V22.6832C20.3907 22.4778 20.5549 22.3957 20.7192 22.4778C22.4851 23.6277 24.7437 24.1205 26.5917 24.1205C28.7272 24.1205 29.7539 23.3813 29.7539 22.3136C29.7539 21.2869 28.9736 20.6298 26.4275 19.6032C21.9512 17.9605 20.3496 16.1125 20.3496 13.1557C20.3496 10.0346 22.8957 7.1189 28.0291 7.1189C30.4109 7.1189 32.2179 7.44743 33.2035 7.94023C33.4088 8.06343 33.4499 8.2277 33.4499 8.43303V12.0469C33.4499 12.2522 33.3267 12.3754 33.0803 12.2933Z" fill="#30A8F9"/>
<path d="M0.380371 27.4879V1.16414C0.380371 0.958801 0.462505 0.835603 0.667838 0.835603C2.22837 0.794537 5.26731 0.712402 8.26517 0.712402C16.2321 0.712402 19.1889 5.1476 19.1889 9.66494C19.1889 16.1945 14.1377 19.0281 7.93664 19.0281C6.62251 19.0281 6.29397 19.0281 5.34944 19.0281V27.4468C5.34944 27.6521 5.26731 27.7753 5.02091 27.7753H0.708904C0.503571 27.7753 0.380371 27.6932 0.380371 27.4879ZM5.34944 5.10654V14.634C6.04757 14.6751 6.58144 14.6751 7.93664 14.6751C11.3862 14.6751 14.302 13.5252 14.302 9.78814C14.302 6.79027 12.1665 5.0244 8.38837 5.0244C6.95104 5.0244 5.80117 5.06547 5.34944 5.10654Z" fill="#30A8F9"/>
</svg>
